<svg xmlns="http://www.w3.org/2000/svg" viewBox="0 0 64 64" role="img" aria-label="RanjanLabs icon">
  <defs>
    <linearGradient id="bg" x1="0" x2="1" y1="0" y2="1">
      <stop offset="0%" stop-color="#0f2b56"/>
      <stop offset="100%" stop-color="#1f4e9a"/>
    </linearGradient>
    <linearGradient id="spark" x1="0" x2="1" y1="0" y2="1">
      <stop offset="0%" stop-color="#ffffff"/>
      <stop offset="100%" stop-color="#dbe8ff"/>
    </linearGradient>
  </defs>
  <rect x="3" y="3" width="58" height="58" rx="16" fill="url(#bg)"/>
  <path d="M20 23c6-7 13-10 24-10-2 8-5 13-11 18 6 0 10 3 13 9-10 0-17-3-22-10 0 6-2 9-6 10 0-8 2-15 2-17Z" fill="url(#spark)" opacity="0.95"/>
  <path d="M32 13l3 6 6 3-6 3-3 6-3-6-6-3 6-3 3-6Z" fill="#9ec5ff" opacity="0.85"/>
</svg>
