<svg xmlns="http://www.w3.org/2000/svg" viewBox="0 0 800 400">
  <defs>
    <linearGradient id="bg" x1="0" x2="1" y1="0" y2="1">
      <stop offset="0%" stop-color="#0f2042" />
      <stop offset="100%" stop-color="#152d60" />
    </linearGradient>
  </defs>
  <rect width="800" height="400" rx="32" fill="url(#bg)" />
  <rect x="120" y="72" width="560" height="256" rx="28" fill="rgba(255,255,255,0.08)" />
  <path d="M140 110h520c15 0 28 13 28 28v168c0 15-13 28-28 28H140c-15 0-28-13-28-28V138c0-15 13-28 28-28Z" fill="rgba(255,255,255,0.14)" />
  <path d="M140 110l260 160 260-160" fill="none" stroke="#7aa2d1" stroke-width="14" stroke-linecap="round" />
  <circle cx="180" cy="122" r="10" fill="#fff" opacity="0.9" />
  <circle cx="213" cy="122" r="10" fill="#fff" opacity="0.6" />
  <circle cx="246" cy="122" r="10" fill="#fff" opacity="0.3" />
  <rect x="180" y="220" width="240" height="20" rx="10" fill="#7aa2d1" opacity="0.7" />
  <rect x="180" y="256" width="320" height="18" rx="9" fill="#fff" opacity="0.24" />
  <rect x="180" y="288" width="280" height="18" rx="9" fill="#fff" opacity="0.18" />
  <circle cx="640" cy="280" r="52" fill="#fff" opacity="0.08" />
  <circle cx="640" cy="280" r="34" fill="#7aa2d1" />
  <path d="M640 242v72M608 280h64" stroke="#fff" stroke-width="10" stroke-linecap="round" />
  <path d="M160 330h480" stroke="#7aa2d1" stroke-width="14" stroke-linecap="round" opacity="0.4" />
</svg>
